/* XPM */
static char *_0cdc609940a4cfbbc869b7d0ab8cff3UPR9spPErws6PR2U[] = {
/* columns rows colors chars-per-pixel */
"40 40 71 1 ",
"  c #202020",
". c #282121",
"X c #2B2921",
"o c #312323",
"O c #372929",
"+ c #373221",
"@ c #422626",
"# c #4A2828",
"$ c #532929",
"% c #5C2B2B",
"& c #433B21",
"* c #563333",
"= c #563434",
"- c #642C2C",
"; c #752F2F",
": c #723434",
"> c #4E4422",
", c #4E472E",
"< c #5A4D22",
"1 c #655623",
"2 c #65592F",
"3 c #715F23",
"4 c #7C6824",
"5 c #4F4D45",
"6 c #5E4949",
"7 c #505050",
"8 c #7C4444",
"9 c #587858",
"0 c #597859",
"q c #676251",
"w c #67655D",
"e c #686868",
"r c #863232",
"t c #893535",
"y c #8C3838",
"u c #973535",
"i c #9D3B3B",
"p c #A83838",
"a c #AE3E3E",
"s c #937A25",
"d c #937D31",
"f c #885050",
"g c #A34141",
"h c #AC4343",
"j c #AF4D4D",
"k c #AA5656",
"l c #B66262",
"z c #D86868",
"x c #788878",
"c c #AA8C26",
"v c #B59527",
"b c #B69526",
"n c #C19E27",
"m c #D8B028",
"M c #D9B63F",
"N c #AC9548",
"B c #978F75",
"V c #CEB04A",
"C c #C3AA55",
"Z c #889088",
"A c #979281",
"S c #989898",
"D c gray69",
"F c #C48C8C",
"G c #C7C2B1",
"H c #D2CBB2",
"J c #DED4B2",
"K c #C8C8C8",
"L c #D3D1C9",
"P c #DFDAC9",
"I c gray88",
/* pixels */
"xxZZ99999999ZZ9xxxZZ99999999ZZ9xxxZZ9999",
"xZZ9ZZZZZZZZ9ZZxxZZ9ZZZZZZZZ9ZZxxZZ9ZZZZ",
"ZZ9ZZ999Z99Z99ZZZZ9ZZ999Z99Z99ZZZZ9ZZ999",
"99ZZ9xxxZxx9Z99999ZZ9xxxZxx9Z99999ZZ9xxx",
"9ZZ9xxxxZxxx9ZZZ9ZZ9xxxxZxxx9ZZZ9ZZ9xxxx",
"9ZZxxxxxZxxxx99Z9ZZxxxxxZxxxx99Z9ZZxxxxx",
"9ZZZZxZZZZxxxxZZ9ZZZZxZZZZxxxxZZ9ZZZZxZZ",
"9999ZZZ                          999ZZZ9",
"ZZZ99ZZ +1X.$6e=@ >11> #*e6$.+1+ ZZ99ZZx",
"99ZZ99Z 1m>opFIjr smms rjIFpo>m1 9ZZ99Zx",
"xx9ZZ9Z 1m>op87ur smms rg78po>m1 x9ZZ9Zx",
"xxx9Z99 2M>oa:Oit dMMd yiO:ao,M2 xx9Z99Z",
"ZxxxZZ9 eI7Ozzzzk SIIS kzzzzO7Ie xxxZZ99",
"ZZxx9ZZ eI7Ozzzzk SIIS kzzzzO7Ie Zxx9ZZZ",
"99ZZx9Z eI7Ozzzzk SIIS kzzzzO7Ie 9ZZx9ZZ",
"xx9ZZZZ eI7oaaaay SIIS taaaao7Ie x9ZZZZZ",
"xxZZ999 wJ5opjlhr AJJB rpljpo5Jq xZZ9999",
"xZZ9ZZZ 1m>opFIjr smms rjIFpo>m1 ZZ9ZZZZ",
"ZZ9ZZ99 1m>opfegr smms rgefpo>m1 Z9ZZ999",
"99ZZ9xx 1m>op- ur smms ru -po>m1 9ZZ9xxx",
"9ZZ9xxx 1m>oppppr smms rppppo>m1 ZZ9xxxx",
"9ZZxxxx 1m>.;;;;- smms %;;;:.>m1 ZZxxxxx",
"9ZZZZxZ 1m>       smms       >m1 ZZZZxZZ",
"9999ZZZ 1mvcccccNDHJJGDNcccccvm1 999ZZZ9",
"ZZZ99ZZ <nnnnnnnVPLKKLPCnnnnnnn< ZZ99ZZx",
"99ZZ99Z         >m1  1m>         9ZZ99Zx",
"xx9ZZ9Z &4+.---.>ms44cm>.---.+4& x9ZZ9Zx",
"xxx9Z99 1m>opppo>mmmmmm>opppo>m1 xx9Z99Z",
"ZxxxZZ9 1m> ooo  ++++++X ooo >m1 xxxZZ99",
"ZZxx9ZZ 1m3>>>>>>>>>>>>>>>>>>3m1 Zxx9ZZZ",
"99ZZx9Z 1mmmmmmmmmmmmmmmmmmmmmm1 9ZZx9ZZ",
"xx9ZZZZ +1111111111111111111111+ x9ZZZZZ",
"xxZZ999                          xZZ9999",
"xZZ9ZZZZZZZZ9ZZxxZZ9ZZZZZZZZ9ZZxxZZ9ZZZZ",
"ZZ9ZZ999Z99Z99ZZZZ9ZZ999Z99Z99ZZZZ9ZZ999",
"99ZZ9xxxZxx9Z99999ZZ9xxxZxx9Z99999ZZ9xxx",
"9ZZ9xxxxZxxx9ZZZ9ZZ9xxxxZxxx9ZZZ9ZZ9xxxx",
"9ZZxxxxxZxxxx99Z9ZZxxxxxZxxxx99Z9ZZxxxxx",
"9ZZZZxZZZZxxxxZZ9ZZZZxZZZZxxxxZZ9ZZZZxZZ",
"9999ZZZ99ZZZxZZ99999ZZZ99ZZZxZZ00000ZZZ0"
};
