/* XPM */
static char *_3bee03e90444c90b3ac202219150e3aBT0arE9HVdP0du5p[] = {
/* columns rows colors chars-per-pixel */
"40 40 38 1 ",
"  c #282828",
". c #541454",
"X c #531A53",
"o c #552255",
"O c #553055",
"+ c #563A56",
"@ c #563F56",
"# c #3C4868",
"$ c #414C41",
"% c #405040",
"& c #575557",
"* c #505850",
"= c #585C58",
"- c #4E684E",
"; c #587858",
": c #597859",
"> c #684868",
", c #625862",
"< c #615C61",
"1 c #7C447C",
"2 c #7B4A7B",
"3 c #4A6076",
"4 c #606060",
"5 c #788178",
"6 c #788478",
"7 c #788878",
"8 c #5C6888",
"9 c #5068A8",
"0 c #844884",
"q c #856485",
"w c #7088C8",
"e c #888C88",
"r c #889088",
"t c #909090",
"y c #A4B0D0",
"u c #90A8E8",
"i c #C4D0F0",
"p c #F8F8F8",
/* pixels */
"77rr;;;;;;;;rr;777rr;;;;;;;;rr;777rr;;;;",
"7rr;rrrrrrrr;rr77rr;rrrrrrrr;rr77rr;rrrr",
"rr;rr;;;r;;r;;rrrr;rr;;;r;;r;;rrrr;rr;;;",
";;rr;777r77;r;;;;;rr;777r77;r;;;;;rr;777",
";rr;7777r777;rrr;rr;7777r777;rrr;rr;7777",
";rr77777r7777;;r;rr77777r7777;;r;rr77777",
";rrrr7rrrr7777rr;rrrr7rrrr7777rr;rrrr7rr",
";;;;rrr;;rrr7rr;;;;;rrr;;rrr7rr;;;;;rrr;",
"rrr;;rr77;;rrr;rrrr;;rr77;;rrr;rrrr;;rr7",
";;rr;;r7777rr;rr;;rr;;r7777rr;rr;;rr;;r7",
"77;rr;r77rrr;rrr77;rr;r77rrr;rrr77;rr;r7",
"777;r;;rrrr;rr;r777;r;;rrrr;rr;r777;r;;r",
"r777rr;;;;;;rr7rr777rr;;;;;;rr7rr777rr;;",
"rr77;rrr;rrrr;7rrr2X .0r;rrrr;7rrr77;rrr",
";;rr7;rr;r7;;77r;>oty#.0;r7;;77r;;rr7;rr",
"77;rrrrr;rrrrrr;1.tpppt+<rrrrrr;77;rrrrr",
"77rr;;;;;;;;rr;7*tpiwyt %;;;rr;777rr;;;;",
"7rr;rrrrrrrr;rr7*tiipy9#=rrr;rr77rr;rrrr",
"rr;rr;;;r;;r;;rr=8wypyw8=;;r;;rrrr;rr;;;",
";;rr;777r77;r;;;%8wypyw8=77;r;;;;;rr;777",
";rr;7777r777;rrr%tyyiww8=777;rrr;rr;7777",
";rr77777r7777;;r%tpiuw9#=7777;;r;rr77777",
";rrrr7rrrr7777rr%tpiuw9#=r7777rr;rrrr7rr",
";;;;rrr;;rrr7rr;%tiuw993-rrr7rr;;;;;rrr;",
"rrr;;rr77;;rrr;rqO8uw9346;;rrr;rrrr;;rr7",
";;rr;;r7777rr;rr;4@#9#&5777rr;rr;;rr;;r7",
"77;rr;r77rrr;rrr77,+ $e77rrr;rrr77;rr;r7",
"777;r;;rrrr;rr;r777;r;;rrrr;rr;r777;r;;r",
"r777rr;;;;;;rr7rr777rr;;;;;;rr7rr777rr;;",
"rr77;rrr;rrrr;7rrr77;rrr;rrrr;7rrr77;rrr",
";;rr7;rr;r7;;77r;;rr7;rr;r7;;77r;;rr7;rr",
"77;rrrrr;rrrrrr;77;rrrrr;rrrrrr;77;rrrrr",
"77rr;;;;;;;;rr;777rr;;;;;;;;rr;777rr;;;;",
"7rr;rrrrrrrr;rr77rr;rrrrrrrr;rr77rr;rrrr",
"rr;rr;;;r;;r;;rrrr;rr;;;r;;r;;rrrr;rr;;;",
";;rr;777r77;r;;;;;rr;777r77;r;;;;;rr;777",
";rr;7777r777;rrr;rr;7777r777;rrr;rr;7777",
";rr77777r7777;;r;rr77777r7777;;r;rr77777",
";rrrr7rrrr7777rr;rrrr7rrrr7777rr;rrrr7rr",
";;;;rrr;;rrr7rr;;;;;rrr;;rrr7rr;;;::rrr:"
};
