/* XPM */
static char *e86433556ea54cdc88e584a2457c74159mblbbJvo6t0P6Xg[] = {
/* columns rows colors chars-per-pixel */
"40 40 80 1 ",
"  c #282828",
". c gray17",
"X c #2C2D2C",
"o c #2F302F",
"O c #2F312F",
"+ c #303130",
"@ c #303630",
"# c #333433",
"$ c #373837",
"% c #383A38",
"& c #3A3E3A",
"* c #3C3D3C",
"= c #3C413C",
"- c #3E403E",
"; c #3B483B",
": c #2B6656",
"> c #2C6656",
", c #356956",
"< c #386B56",
"1 c #396C57",
"2 c #3D6D57",
"3 c #246462",
"4 c #286664",
"5 c #454845",
"6 c #4A514A",
"7 c #4D554D",
"8 c #485E48",
"9 c #575B57",
"0 c #585C58",
"q c #4F694F",
"w c #596359",
"e c #5F645F",
"r c #5F6A5F",
"t c #457057",
"y c #477157",
"u c #557355",
"i c #567556",
"p c #527658",
"a c #557758",
"s c #587858",
"d c #597859",
"f c #4F766C",
"g c #4C7671",
"h c #4E7772",
"j c #606560",
"k c #636863",
"l c #636F63",
"z c #646964",
"x c #696F69",
"c c #677367",
"v c #617E71",
"b c #617E79",
"n c #797F79",
"m c #C01820",
"M c #885828",
"N c #B76921",
"B c #B66A24",
"V c #B86820",
"C c #F87800",
"Z c #509010",
"A c #78B820",
"S c #389068",
"D c #6E8375",
"F c #69827C",
"G c #6E847E",
"H c #738677",
"J c #748777",
"K c #788878",
"L c #40D770",
"P c #40D870",
"I c #E09050",
"U c #D59965",
"Y c #F0A068",
"T c #F0D840",
"R c #E860B0",
"E c #7E8B84",
"W c #838B83",
"Q c #868F87",
"! c #889088",
"~ c #F8F8F8",
/* pixels */
"KK!!ssssssss!!sKKK!!ssssssss!!sKKK!!ssss",
"K!!s!!!!!!!!s!!KK!!s!!!!!!!!s!!KK!!s!!!!",
"!!s!!sss!ss!ss!!!!s!!sss!ss!ss!!!!s!!sss",
"ss!!sKKK!KKs!sssss!!sKKK!KKs!sssss!!sKKK",
"s!!sKKKK!KKKs!!!s!!sKKKK!KKKs!!!s!!sKKKK",
"s!!KKKKK!KKKKss!s!!KKKKK!KKKKss!s!!KKKKK",
"s!!!!K!!!!KKKK!!s!!!!K!!!!KKKK!!s!!!!K!!",
"ssss!!!ss!!!K!!sssss!!!ss!!!K!!sssss!!!s",
"!!!ss!!KKss!!!s!!!G>:b!KKss!!!s!!!!ss!!K",
"ss!!ss!KKKK!!s!!ssX   3KKKK!!s!!ss!!ss!K",
"KKs!!s!KK!!!s!!!KOZZAZ +v!!!s!!!KKs!!s!K",
"KKKs!ss!!!!s!Qs!=ZZAAAAZ$E!s!!s!KKKs!ss!",
"!KKK!!ssssssQ!Kx CZZAZC Z@;s!!K!!KKK!!ss",
"!!KKs!!!s!!!!UcR  CCCC  Z Y!!sK!!!KKs!!!",
"ss!!Ks!!s!KsuY RRR    RR  YqsKK!ss!!Ks!!",
"KKs!!!!!s!!!WVY RRRRRRRR YVn!!!sKKs!!!!!",
"KK!!ssssssda!B R        R Ni!!sKKK!!ssss",
"K!!s!!!!!!!!d5V V~~VV~~V Vj!s!!KK!!s!!!!",
"!!s!!sss!sd!d1@VV~ YY ~VVXa!ss!!!!s!!sss",
"ss!!sKKK!KKa!>O VY YY YV &Hs!sssss!!sKKK",
"s!!sKKKK!KKKp%LS VYYYYV SLcDs!!!s!!sKKKK",
"s!!KKKKK!KKKwM SS  VV  SS MrHss!s!!KKKKK",
"s!!!!K!!!!KJ7MM SPS  SPS MMwDK!!s!!!!K!!",
"ssss!!!ss!QQ6I  SSPPPPPS  IkK!!sssss!!!s",
"!!!ss!!KKss!9II SSSLLSSS IIeQ!s!!!!ss!!K",
"ss!!ss!KKKK!9I STT TT TTS IzQs!!ss!!ss!K",
"KKs!!s!KK!!!>=  SSTTTTSS  eEs!!!KKs!!s!K",
"KKKs!ss!!!!sQ4@m  SSSS  mlGs!!s!KKKs!ss!",
"!KKK!!ssssss!!3%Cm .O mC8yss!!K!!KKK!!ss",
"!!KKs!!!s!!!!dKh=**f<w0jy!!!!sK!!!KKs!!!",
"ss!!Ks!!dQKdaKK!t<b!K2gFi!KssKK!ss!!Ks!!",
"KKs!!!!!d!!!!!!sKKs!!!!!s!!!!!!sKKs!!!!!",
"KK!!ssssssss!!sKKK!!ssssssss!!sKKK!!ssss",
"K!!s!!!!!!!!s!!KK!!s!!!!!!!!s!!KK!!s!!!!",
"!!s!!sss!ss!ss!!!!s!!sss!ss!ss!!!!s!!sss",
"ss!!sKKK!KKs!sssss!!sKKK!KKs!sssss!!sKKK",
"s!!sKKKK!KKKs!!!s!!sKKKK!KKKs!!!s!!sKKKK",
"s!!KKKKK!KKKKss!s!!KKKKK!KKKKss!s!!KKKKK",
"s!!!!K!!!!KKKK!!s!!!!K!!!!KKKK!!s!!!!K!!",
"ssss!!!ss!!!K!!sssss!!!ss!!!K!!sssdd!!!d"
};
