/* XPM */
static char *f65044c0763d4f32e1d94a26df7d0b848dmqfEf0rgOGecav[] = {
/* columns rows colors chars-per-pixel */
"40 40 110 2 ",
"   c #282828",
".  c #2F342F",
"X  c #313731",
"o  c #323432",
"O  c #353735",
"+  c #742024",
"@  c #3C5C1C",
"#  c #364036",
"$  c #3B483B",
"%  c #584028",
"&  c #704824",
"*  c #734E27",
"=  c #507024",
"-  c #7B753B",
";  c #355B49",
":  c #305C48",
">  c #3C5A4B",
",  c #3C5B4D",
"<  c #367D4D",
"1  c #3C6954",
"2  c #405040",
"3  c #435643",
"4  c #505850",
"5  c #565C59",
"6  c #585C58",
"7  c #4A614A",
"8  c #4B634B",
"9  c #4F6A4F",
"0  c #526E52",
"q  c #5A645A",
"w  c #5F6A5F",
"e  c #45715B",
"r  c #547154",
"t  c #567758",
"y  c #587858",
"u  c #597859",
"i  c #5E6763",
"p  c #656B65",
"a  c #6B706B",
"s  c #6D736D",
"d  c #737A73",
"f  c #8B3B3B",
"g  c #C01820",
"h  c #905014",
"j  c #885828",
"k  c #845C3C",
"l  c #85703D",
"z  c #A56A29",
"x  c #B86820",
"c  c #DC4810",
"v  c #F87800",
"b  c #9C4C4C",
"n  c #876349",
"m  c #8C6448",
"M  c #98784C",
"N  c #9C7858",
"B  c #87446B",
"V  c #88446C",
"C  c #509010",
"Z  c #64A418",
"A  c #548434",
"S  c #6B8D3F",
"D  c #68983C",
"F  c #78B820",
"G  c #34804C",
"H  c #389068",
"J  c #3CB46C",
"K  c #628542",
"L  c #4D8D6D",
"P  c #5C8B71",
"I  c #628A72",
"U  c #688A74",
"Y  c #69827C",
"T  c #69837C",
"R  c #658F7A",
"E  c #708070",
"W  c #77827B",
"Q  c #7F867F",
"!  c #788878",
"~  c #69957C",
"^  c #4DA563",
"/  c #A48408",
"(  c #8C8034",
")  c #B8803C",
"_  c #A3984B",
"`  c #80A353",
"'  c #80A454",
"]  c #96B253",
"[  c #98B355",
"{  c #82907B",
"}  c #B79779",
"|  c #B4977A",
" . c #A3A563",
".. c #D48444",
"X. c #E09050",
"o. c #E89F6A",
"O. c #F0A068",
"+. c #AF7493",
"@. c #B07494",
"#. c #B7789B",
"$. c #B8789C",
"%. c #E760AF",
"&. c #E860B0",
"*. c #808780",
"=. c #808C84",
"-. c #818D85",
";. c #878F87",
":. c #829586",
">. c #889088",
",. c #909090",
/* pixels */
"! ! >.>.y y y y y y y y >.>.y ! ! ! >.>.y y y y y y y y >.>.y ! ! ! >.>.y y y y ",
"! >.>.y >.>.>.>.>.>.>.>.y >.>.! ! >.>.y >.>.>.>.>.>.>.>.y >.>.! ! >.>.y >.>.>.>.",
">.>.y >.>.y y y >.y y >.y y >.>.>.>.y >.>.y y y >.y y >.y y >.>.>.>.y >.>.y y y ",
"y y >.>.y ! ! ! >.! ! y >.y y y y y >.>.y ! ! ! >.! ! y >.y y y y y >.>.y ! ! ! ",
"y >.>.y ! ! ! ! >.! ! ! y >.>.>.y >.>.y ! ! ! ! >.! ! ! y >.>.>.y >.>.y ! ! ! ! ",
"y >.>.! ! ! ! ! >.! ! ! ! y y >.y >.>.! ! ! ! ! >.! ! ! ! y y >.y >.>.! ! ! ! ! ",
"y >.>.>.>.! >.>.>.>.! ! ! ! >.>.y >.>.>.>.! >.>.>.>.! ! ! ! >.>.y >.>.>.>.! >.>.",
"y y y y >.>.>.y y >.>.>.! >.>.y y y y y >.>.>.y y >.>.>.! >.>.y y y y y >.>.>.y ",
">.>.>.y y >.>.! ! y y >.>.>.y >.>.>.>.t y ;.>.! ! y y >.>.>.y >.>.>.>.y y >.>.! ",
"y y >.>.y y >.! ! ! ! >.>.y >.>.y y >.*.9 0 ;.! ! ! ! >.>.y >.>.y y >.>.y y >.! ",
"! ! y >.>.y >.! ! >.>.>.y >.>.>.! ! A C Z F S w E >.>.>.y >.>.>.! ! y >.>.y >.! ",
"! ! ! y >.y y >.>.>.>.y >.>.y >.! ) v / Z F F Z K W -.y >.>.y >.! ! ! y >.y y >.",
">.! ! ! >.>.y y y y y y >.>.! $.V h v / C Z F F = # 7 r >.>.! >.>.! ! ! >.>.y y ",
">.>.! ! y >.>.>.y >.>.>.>.y @.&.&.V h v v / C C @ @ Z ` ;.y ! >.>.>.! ! y >.>.>.",
"y y >.>.! y >.>.y >.! y y ! +.%.&.&.V   h v h @ C C Z F D ! ! >.y y >.>.! y >.>.",
"! ! y >.>.>.>.>.y >.>.>.>.>.Q $ V &.&.&.V   m m @ C C Z ' >.>.y ! ! y >.>.>.>.>.",
"! ! >.>.y y y y y y y y >.>.t M &     V V m O.m   @ C Z ' >.y ! ! ! >.>.y y y y ",
"! >.>.y >.>.>.>.>.>.>.>.t >.s N m ,.,.V V m ..& O p { { y >.>.! ! >.>.y >.>.>.>.",
">.>.y >.>.y y y >.y y >.t y } o.m ,.,.V V & x & 6 y y >.y y >.>.>.>.y >.>.y y y ",
"y y >.>.y ! ! ! >.! ! y >.y 3 * ......m & x & B #.! ! y >.y y y y y >.>.y ! ! ! ",
"y >.>.y ! ! ! ! >.! ! ! y >.} n   & x x x &   4 >.! ! ! y >.>.>.y >.>.y ! ! ! ! ",
"y >.>.! ! ! ! ! >.! ! ! ! t l & : :       ; L U >.! ! ! ! y y >.y >.>.! ! ! ! ! ",
"y >.>.>.>.! >.>.>.>.! ! ! ! p 1 J J H :   > ~ :.>.>.! ! ! ! >.>.y >.>.>.>.! >.>.",
"y y y y >.>.>.y y >.>.>.! >.a X : J G % j % < ^ y >.>.>.! >.>.y y y y y >.>.>.y ",
">.>.>.y y >.>.! ! y y >.>.>.8 _ ( : : % j %   -  .y y >.>.>.y >.>.>.>.y y >.>.! ",
"y y >.>.y y >.! ! ! ! >.>.y >.R ] ( k X.X.k ( [ P ! ! >.>.y >.>.y y >.>.y y >.! ",
"! ! y >.>.y >.! ! >.>.>.y >.>.s e ; k X.X.k , I ! >.>.>.y >.>.>.! ! y >.>.y >.! ",
"! ! ! y >.y y >.>.>.>.y >.>.y >.q o   k X.k 2 ;.>.>.>.y >.>.y >.! ! ! y >.y y >.",
">.! ! ! >.>.y y y y y y >.>.! >.d f +       $ y y y y y >.>.! >.>.! ! ! >.>.y y ",
">.>.! ! y >.>.>.y >.>.>.>.y ! >.>.d z v c g b -.y >.>.>.>.y ! >.>.>.! ! y >.>.>.",
"y y >.>.! y >.>.y >.! y y ! ! >.y t 5     . i -.y >.! y y ! ! >.y y >.>.! y >.>.",
"! ! y >.>.>.>.>.y >.>.>.>.>.>.y ! ! t Y Y ;.>.>.y >.>.>.>.>.>.y ! ! y >.>.>.>.>.",
"! ! >.>.y y y y y y y y >.>.y ! ! ! >.>.y y y y y y y y >.>.y ! ! ! >.>.y y y y ",
"! >.>.y >.>.>.>.>.>.>.>.y >.>.! ! >.>.y >.>.>.>.>.>.>.>.y >.>.! ! >.>.y >.>.>.>.",
">.>.y >.>.y y y >.y y >.y y >.>.>.>.y >.>.y y y >.y y >.y y >.>.>.>.y >.>.y y y ",
"y y >.>.y ! ! ! >.! ! y >.y y y y y >.>.y ! ! ! >.! ! y >.y y y y y >.>.y ! ! ! ",
"y >.>.y ! ! ! ! >.! ! ! y >.>.>.y >.>.y ! ! ! ! >.! ! ! y >.>.>.y >.>.y ! ! ! ! ",
"y >.>.! ! ! ! ! >.! ! ! ! y y >.y >.>.! ! ! ! ! >.! ! ! ! y y >.y >.>.! ! ! ! ! ",
"y >.>.>.>.! >.>.>.>.! ! ! ! >.>.y >.>.>.>.! >.>.>.>.! ! ! ! >.>.y >.>.>.>.! >.>.",
"y y y y >.>.>.y y >.>.>.! >.>.y y y y y >.>.>.y y >.>.>.! >.>.y y y y y >.>.>.y "
};
