/* XPM */
static char *_5975a7cf8624727d45035c9df220728CbXVjowRO0JNAGID[] = {
/* columns rows colors chars-per-pixel */
"40 40 69 1 ",
"  c #282828",
". c #2B2C2B",
"X c gray20",
"o c #383B38",
"O c #3D3F3D",
"+ c #005454",
"@ c #055654",
"# c #0E5957",
"$ c #0D5A59",
"% c #115B5A",
"& c #226155",
"* c #256356",
"= c #316856",
"- c #3A6C57",
"; c #3C6D57",
": c #404540",
"> c #424842",
", c #465946",
"< c #485E48",
"1 c #525552",
"2 c #555855",
"3 c #4B624B",
"4 c #4D664D",
"5 c #506B50",
"6 c #516C51",
"7 c #536F53",
"8 c #596359",
"9 c #5E695E",
"0 c #4A7258",
"q c #587858",
"w c #597859",
"e c #46736F",
"r c #4B7671",
"t c #517772",
"y c #567A75",
"u c #636F63",
"i c #6F756F",
"p c #617E71",
"a c #C01820",
"s c #885828",
"d c #B86820",
"f c #F87800",
"g c #509010",
"h c #78B820",
"j c #3C8D66",
"k c #389068",
"l c #418F6A",
"z c #4D8D6D",
"x c #7C906E",
"c c #688173",
"v c #748777",
"b c #778677",
"n c #7A817A",
"m c #788878",
"M c #65907A",
"N c #42D26F",
"B c #40D870",
"V c #E09050",
"C c #F0A068",
"Z c #D9C950",
"A c #F0D840",
"S c #E860B0",
"D c #738680",
"F c #71A781",
"G c #828982",
"H c #878F87",
"J c #839086",
"K c #889088",
"L c #F8F8F8",
/* pixels */
"mmKKqqqqqqqqKKqmmmKKqqqqqqqqKKqmmmKKqqqq",
"mKKqKKKKKKKKqKKmmKKqKKKKKKKKqKKmmKKqKKKK",
"KKqKKqqqKqqKqqKKKKqKKqqqKqqKqqKKKKqKKqqq",
"qqKKqmmmKmmqKqqqqqKKqmmmKmmqKqqqqqKKqmmm",
"qKKqmmmmKmmmqKKKqKKqmmmmKmmmqKKKqKKqmmmm",
"qKKmmmmmKmmmmqqKqKKmmmmmKmmmmqqKqKKmmmmm",
"qKKKKmKKKKmmmmKKqKKKKmKKKKmmmmKKqKKKKmKK",
"qqqqKKKqqKKKmKKqqqqqKKKqqKKKmKKqqqqqKKKq",
"KKKqqKKmmqqKKKqKKKt&&rKmmqqKKKqKKKKqqKKm",
"qqKKqqKmmmmKKqKK;*X   +mmmmKKqKKqqKKqqKm",
"mmqKKqKmmKKKqKKe>ohhgg #pKKKqKKKmmqKKqKm",
"mmmqKqqKKKKqKK01ghhhgff  %KqKKqKmmmqKqqK",
"KmmmKKqqqqqqKG9 hhhggff S @qKKmKKmmmKKqq",
"KKmmqKKKqKKKKhg gggfff SSS yKqmKKKmmqKKK",
"qqKKmqKKqKmqhhggg ff  SSSS -qmmKqqKKmqKK",
"mmqKKKKKqKKKhggg C  SSSS  $KKKKqmmqKKKKK",
"mmKKqqqqqqqqhgg  CC S   d =qKKqmmmKKqqqq",
"mKKqKKKKKKKKqxH: dC S L C $KqKKmmKKqKKKK",
"KKqKKqqqKqqKqqKn dd S L CC DqqKKKKqKKqqq",
"qqKKqmmmKmmqKqq6S dd CdCd +qKqqqqqKKqmmm",
"qKKqmmmmKmmmqKKK6  dddd  C.vqKKKqKKqmmmm",
"qKKmmmmmKmmmmqqK3MJ    k dommqqKqKKmmmmm",
"qKKKKmKKKKmmmmKK3FK  kkBkOcmmmKKqKKKKmKK",
"qqqqKKKqqKKKmKKq6N ss Bk 2KKmKKqqqqqKKKq",
"KKKqqKKmmqqKKKqKZ  ss k A,qKKKqKKKKqqKKm",
"qqKKqqKmmmmKKqKKjA VVV AkumKKqKKqqKKqqKm",
"mmqKKqKmmKKKqKKKmz VVV luKKKqKKKmmqKKqKm",
"mmmqKqqKKKKqKKqKmb VV  iKKKqKKqKmmmqKqqK",
"KmmmKKqqqqqqKKmKKm    a4qqqqKKmKKmmmKKqq",
"KKmmqKKKqKKKKqmKKKaaffnKqKKKKqmKKKmmqKKK",
"qqKKmqKKqKmqqmmKqqKn8<KKqKmqqmmKqqKKmqKK",
"mmqKKKKKqKKKKKKqmbwKKKKKqKKKKKKqmmqKKKKK",
"mmKKqqqqqqqqKKqmmmKKqqqqqqqqKKqmmmKKqqqq",
"mKKqKKKKKKKKqKKmmKKqKKKKKKKKqKKmmKKqKKKK",
"KKqKKqqqKqqKqqKKKKqKKqqqKqqKqqKKKKqKKqqq",
"qqKKqmmmKmmqKqqqqqKKqmmmKmmqKqqqqqKKqmmm",
"qKKqmmmmKmmmqKKKqKKqmmmmKmmmqKKKqKKqmmmm",
"qKKmmmmmKmmmmqqKqKKmmmmmKmmmmqqKqKKmmmmm",
"qKKKKmKKKKmmmmKKqKKKKmKKKKmmmmKKqKKKKmKK",
"qqqqKKKqqKKKmKKqqqqqKKKqqKKKmKKqqqqqKKKq"
};
