/* XPM */
static char *_703a99adbea415fcd0a5baf373eac6a6EhWccEG2FS65t0Z[] = {
/* columns rows colors chars-per-pixel */
"16 21 18 1 ",
"  c #403830",
". c #385810",
"X c #385910",
"o c #706060",
"O c #378F2F",
"+ c #388F30",
"@ c #379030",
"# c #389030",
"$ c #18A068",
"% c #7FCF5F",
"& c #80D060",
"* c #81D060",
"= c #9933CC",
"- c #40B088",
"; c #70C8A0",
": c #B7F787",
"> c #B7F788",
", c #B8F888",
/* pixels */
"=======#O=======",
"======#&%O======",
"===####,>#+++===",
"===#&##,,##&+===",
"==###&#,,#&+#O==",
"#,&&&##&&@#&&&:+",
"#&&#&&&&&&&&#&&#",
".##&&&,&&,&&&##.",
".#&&##,&&,##&&#.",
"$.#....&&....#.$",
".#&.##.##.##.&#.",
".&&####..####&&.",
"-.#.&&####&&.#.-",
"$$... oooo ...$$",
"$....  oo  ....$",
"$.....    .....$",
"$$............$$",
"-$$..........$$-",
";-$$$......$$$-;",
";;---$$$$$$---;;",
";;;;;------;;;;;"
};
