/* XPM */
static char *b691a0bd7bde4355c65ac1cf9515b46cepRG9s1Iq8h0d7KT[] = {
/* columns rows colors chars-per-pixel */
"40 40 108 2 ",
"   c gray19",
".  c #323232",
"X  c #353535",
"o  c #373737",
"O  c gray22",
"+  c #393939",
"@  c #3A3A3A",
"#  c gray23",
"$  c #3E3E3E",
"%  c #3F3F3F",
"&  c #414141",
"*  c #434343",
"=  c #444444",
"-  c gray27",
";  c gray28",
":  c #484848",
">  c #494949",
",  c #4C4C4C",
"<  c #4E4E4E",
"1  c #505050",
"2  c gray32",
"3  c #535353",
"4  c gray33",
"5  c #555555",
"6  c gray34",
"7  c #585858",
"8  c #5A5A5A",
"9  c gray36",
"0  c gray37",
"q  c #587858",
"w  c #597859",
"e  c #606060",
"r  c gray38",
"t  c gray39",
"y  c #646464",
"u  c gray40",
"i  c #676767",
"p  c #686868",
"a  c #6A6A6A",
"s  c gray42",
"d  c #6C6C6C",
"f  c #6D6D6D",
"g  c gray43",
"h  c #6F6F6F",
"j  c gray44",
"k  c #717171",
"l  c #727272",
"z  c #747474",
"x  c gray46",
"c  c #767676",
"v  c gray47",
"b  c #797979",
"n  c gray48",
"m  c #7B7B7B",
"M  c #7C7C7C",
"N  c #7E7E7E",
"B  c #788878",
"V  c #808080",
"C  c gray51",
"Z  c #838383",
"A  c #848484",
"S  c gray52",
"D  c #898989",
"F  c #8B8B8B",
"G  c gray55",
"H  c #8E8E8E",
"J  c #889088",
"K  c #929292",
"L  c gray58",
"P  c #979797",
"I  c #989898",
"U  c gray60",
"Y  c #9A9A9A",
"T  c #9B9B9B",
"R  c gray62",
"E  c #9F9F9F",
"W  c #A0A0A0",
"Q  c gray63",
"!  c gray64",
"~  c #A4A4A4",
"^  c gray65",
"/  c #A7A7A7",
"(  c gray66",
")  c #A9A9A9",
"_  c gray67",
"`  c gray68",
"'  c #AFAFAF",
"]  c #B1B1B1",
"[  c #B2B2B2",
"{  c #B4B4B4",
"}  c #B6B6B6",
"|  c #BBBBBB",
" . c gray74",
".. c gray75",
"X. c #C3C3C3",
"o. c gray77",
"O. c #C6C6C6",
"+. c #C8C8C8",
"@. c gray79",
"#. c gray80",
"$. c #CDCDCD",
"%. c gray81",
"&. c gray82",
"*. c gray84",
"=. c #DDDDDD",
"-. c #DFDFDF",
";. c gray89",
":. c gray91",
/* pixels */
"$ ) &.j $ f R R t $ j &.W $ q B B B J J q q q q q q w d -.B 1 , * ; - 1 1 V -.s ",
"+ C H T f T -.-.T j T P S $ J B B J J q J J J J J J J : F &.5 y | :.| e 4 %.F ; ",
"$ H 2 H [ W -.-.W [ H 2 G $ G F J J q J J q q q J q q 7 j j W W | :.| R R j z 9 ",
"X - N 7 / | *.*._ / 7 N : o w w q q J J q B B B J B B $ j r C O.| :.| +.C e j $ ",
"2 + $ 0 : T )  .P - 9 # + 5 J J q J J q B B B B H B B : + 2 5 0 %.) %.e 6 1 o ; ",
"5 2 , 7 f X P P $ f 9 : : 5 w J q J J B B B B B J B B 5 : o F $ p %.s # F o ; 6 ",
": C H - S , r r 2 S = G B : J J q J J J J B J J J J B : H r 2 K # 9 $ K 4 r F , ",
"& } f X 2 $ K K : v = K $.- J w q q q q J J J q q J F y [ 9 = e 9 R 9 K * z X.p ",
"$ f r | | 5 y r + - - 7 R $ w J J J J q q J G B B q w 3 i v ! T ; z ; 4 ; 4 I r ",
"  r O.@. .&., + 2 f x & +   J J q q J J q q F B B B B   Z } -.[ U o ; 5 H ; # o ",
"- *.W O.| R ;.a -.O.x $ N $ T :.0 2 3 = - = : 5 0 -.T x X.W -.W | Q ' -.H ; p 6 ",
": $.` X. .) *.5 S v & 0 f + 2 / -.+ r | :.| r $ :./ 5 a X./ ;.W o.G r C 4 4 V ; ",
"$ R ) &.$.W R + 2 5 2 K P + x 7 T J W  .:.| W H T 7 x 9 T ' ;. .K p 4 ; x r R , ",
"$ C 2 | [ - K $ S 7 x 7 ,   5 x : ! | | :.| | ! , x 3 7 y 0 -.a 9 p x % K 1 , o ",
"$ S   x r   K 5 H , , X a X + , 7 0 K O.| O.Z e 7 5 + 9 i   T   9 b C 9 % . e 1 ",
"X 7 a a 7 j x $ - & a 2 S $ 2 + # S # Z *.K # B + o 3 o i 9 K : M * .   f b p 9 ",
"$ x 7 T T a +     5 | j C $ & N $ a x + : + N a $ x = 7 j e x x 1 % % . b x p 9 ",
"$ P 5 $ $ 7 r 0 7 $ $ $ H $ N O.: 9 N 0 W 7 S 9 , *.v i W j i a M b b s p s I p ",
": $.[ [ [ [ [ [ [ [ [ [ $.& K a 5 0 2 5 H 2 j $ 7 W P t O.$.$.$.$.$.$.#.%.#.X.r ",
"+ N W / W W / W W / W / C + & j O.;...i : = % d % 2 7 + & - : : ; ; ; ; ; ; * o ",
"$ ) &.j $ f R R y $ j &.W $ a } ! -.) [ y N W W 4 % 4 f -.B , 1 * ; - 1 1 C -.s ",
"+ C H T f T ;.-.T j T T C $ W [ W -.W | W T | N % 1 9 ; H &.5 r | :.| e 1 %.F ; ",
"$ H 2 H [ R -.-.R [ H 2 H $ S $.) -.` $.x - r 5 # } j 6 j j R Q | :.| Q R z z 9 ",
"X - N 5 / | *.*.` ) 5 N , X x 7 @.:.[ t i j : F % I 1 % j e C +.| :.| +.C 9 f $ ",
"5 X $ 0 : T )  .P & 0 $ X 5 x ,   @.  7 a v 2 S , o o ; o 1 7 e $.) %.e 6 1 o ; ",
"5 2 : 0 f X P P & f 7 , : 7 a 7 o K + a f j 9 + , , x 6 ; o D % p %.s # F o ; 6 ",
": C H & S , r r , S & H C : , t 7 T r f $     a ) , x , G y 4 K % 9 % K 4 r F 1 ",
"- } a + 2 $ K K , v - K $.& x 0 r a r 2 - & X r V , x p [ 6 % e 6 R 9 K * z X.p ",
"$ f r | | 2 y r o - - 7 W $ K P v x v S S S N x x G F 4 p b ~ U ; z ; 4 ; 4 I r ",
"  r O.@. .&., + 2 a x & +   C $.*.*.*.*.*.*.*.*.*.$.V . S [ -.[ U o ; 6 H ; # o ",
"- *.R O.| W ;.a -.O.x & N $ X - : - : : : - : - ; ; o z +.Q -.Q | Q ' -.H ; p 6 ",
": $.` O.| ` *.5 F x - 7 f + J w B B w J J J J J w G F s X.) -.Q o.G r C 4 4 B : ",
"$ T / &.$.W R X 2 7 2 K T + w B B B J J q q q q q q q 5 P ' ;. .K i 3 : j a W , ",
"$ S 2 | [ : K $ S 7 j 7 ,   J B B J J q J J J J J J J 7 i 0 -.i 7 d x % P , , X ",
"$ C   x y   K 5 H , , X i + J J J J q J J q q q J w w 0 i   T   9 v Z 7 $   e 2 ",
"+ 0 y a 7 j j $ - & a 2 Z $ w w q q J J q B B B J B B o d 7 K , B -     a N y 9 ",
"$ x 7 T T y +     5 | f S $ J J q J J q B B B B J B B 7 j e x x , & $   N x y 0 ",
"$ P 5 $ $ 7 r r 7 $ $ $ H $ q J q J J B B B B B J B B i W j y d m N m a i a T y ",
"- $.[ [ [ [ [ [ } [ } [ $.& J J q J J J J B J J J J B t X.$.#.$.$.$.$.$.$.$.X.t ",
"+ N / W W / W / / W ! ! Z o J q q q q q J J J q w J J o = : : : : - : : : : & + "
};
