/* XPM */
static char *_1ab85fe21184b3d9a9fb14652007cf68bpIk3qnVdEv6xhp[] = {
/* columns rows colors chars-per-pixel */
"40 40 51 1 ",
"  c gray19",
". c #353535",
"X c #373737",
"o c gray23",
"O c #3E3E3E",
"+ c #3F3F3F",
"@ c gray26",
"# c #444444",
"$ c #464646",
"% c #4B4B4B",
"& c #4E4E4E",
"* c #535353",
"= c gray34",
"- c #585858",
"; c #5A5A5A",
": c gray36",
"> c #587858",
", c gray38",
"< c #676767",
"1 c #6A6A6A",
"2 c #6C6C6C",
"3 c gray44",
"4 c #767676",
"5 c #797979",
"6 c #7C7C7C",
"7 c #788878",
"8 c #838383",
"9 c gray52",
"0 c #898989",
"q c #8B8B8B",
"w c #8E8E8E",
"e c #889088",
"r c #929292",
"t c #9A9A9A",
"y c #A0A0A0",
"u c #A5A5A5",
"i c #A9A9A9",
"p c gray68",
"a c #B1B1B1",
"s c #B2B2B2",
"d c #BBBBBB",
"f c gray77",
"g c #C8C8C8",
"h c #CDCDCD",
"j c gray82",
"k c gray84",
"l c #DADADA",
"z c gray87",
"x c #DFDFDF",
"c c #E7E7E7",
"v c gray91",
/* pixels */
"77ee>>>>>>>>ee>777ee>>>>>>>>ee>777ee>>>>",
"7ee>eeeeeeee>ee77ee>eeeeeeee>ee77ee>eeee",
"ee>ee>> 5fca:*&&%&:::&*&&*:gcf< ee>ee>>>",
">>ee>77 @=jvv,  4ivvvy4  :vvk=+ >>ee>777",
">ee>777 :94yv3=4rivvvyr4&3v039* >ee>7777",
">ee7777 1y@2jr3ytivvvyyy45j<#y- >ee77777",
">eeee7e <t,% dkyyivvvyyyxd &,y- >eeee7ee",
">>>>eee &<5<#0ifaivvvypfu9#351# >>>>eee>",
"eee>>ee   r9--6vduvvvydv1-=wr   eee>>ee7",
">>ee>>e-#  +--& ycyyycu *-=o  %->>ee>>e7",
"77>ee>e-%@ o%1, 4idddy5 1<%. +&=77>ee>e7",
"777>e>>-=-.  99  %vvv   r8  .--=777>e>>e",
"e777ee>-#.93 *3r* #%% *r1= 69.%=e777ee>>",
"ee77>ee&&&u9 &1y- &%& -t,& ru&*&ee77>eee",
">>ee7>e <yxu &1y-+tyy :y,& dxy- >>ee7>ee",
"77>eeee 8kw- .@%o@yyy -t%+&tak3 77>eeeee",
"77ee>>> 9k,*#%#%o+trr =r@o*8tc2 77ee>>>>",
"7ee>eee @-.4vvvv3.--=   *& &,y- 7ee>eeee",
"ee>ee>> o+tidxldit@++%%%64%+#-+ ee>ee>>>",
">>ee>77   jhykkyhj   ==-tw=o    >>ee>777",
">ee>777 0viyykkytpvy-vvvir-o+y- >ee>7777",
">ee7777 wciyykkyyivy-fff92##&5& >ee77777",
">eeee7e wviyykkyyivy-tyy,& &--@ >eeee7ee",
">>>>eee 1ikgykktgki3.+&,=& ahr= >>>>eee>",
"eee>>ee <tiudlcdiut< :=%2, yf9* eee>>ee7",
">>ee>>e 1y+4vvvv4@y1 t4 r8 8t-+ >>ee>>e7",
"77>ee>e <y+%:gf:o+y1 y4 r0&%#o  77>ee>e7",
"777>e>> 1t+  pp  +y2oy4o84&o %+ 777>e>>e",
"e777ee> 1y+  89  +t6-t0=.   @y: e777ee>>",
"ee77>ee #-4- 98 -54:@:*+%=4++t- ee77>eee",
">>ee7>e .+94+8w+4w*@    -3i&@y: >>ee7>ee",
"77>eeee 1y+-yyyt4*      rav:+y- 77>eeeee",
"77ee>>> 1t*&1<<1:=@###o ,3w#+t: 77ee>>>>",
"7ee>eee 1y,%    %-----%     +y: 7ee>eeee",
"ee>ee>> wviyyytyyyyyyyyyyyyyiv4 ee>ee>>>",
">>ee>77 6hdddddddddddddddddddh2 >>ee>777",
">ee>777 1yxcvvvvvvvvvcccvvcvxt- >ee>7777",
">ee7777 .+#%%##%#%%##%#%%#%##@o >ee77777",
">eeee7eeee7777ee>eeee7eeee7777ee>eeee7ee",
">>>>eee>>eee7ee>>>>>eee>>0ee7ee>>>>>eee>"
};
