/* XPM */
static char *_673013633af4b38a5de512eacb2733eY6tnVZwFmXg5CetV[] = {
/* columns rows colors chars-per-pixel */
"40 40 101 2 ",
"   c gray19",
".  c #323030",
"X  c #333131",
"o  c #333230",
"O  c #373131",
"+  c #383232",
"@  c #3E3333",
"#  c #3D3A30",
"$  c #403333",
"%  c #4D3636",
"&  c #403C30",
"*  c #523737",
"=  c #533737",
"-  c #5D3939",
";  c #603A3A",
":  c #633A3A",
">  c #623D39",
",  c #683B3B",
"<  c #6D3C3C",
"1  c #703D3D",
"2  c #753E3E",
"3  c #763E3E",
"4  c #783E3E",
"5  c #7D3F3F",
"6  c #464130",
"7  c #4D4530",
"8  c #504830",
"9  c #5D5130",
"0  c #634A34",
"q  c #6E5C31",
"w  c #706030",
"e  c #766530",
"r  c #535353",
"t  c #694646",
"y  c #614D4D",
"u  c #704444",
"i  c #724646",
"p  c #794242",
"a  c #605C4F",
"s  c #796D48",
"d  c gray48",
"f  c #806C30",
"g  c #8A7330",
"h  c #8D7530",
"j  c #907830",
"k  c #977D30",
"l  c #804040",
"z  c #8B4D4D",
"x  c #924B4B",
"c  c #934C4C",
"v  c #8D5656",
"b  c #995050",
"n  c #915D5D",
"m  c #AD5C5C",
"M  c #917E41",
"N  c #936060",
"B  c #926666",
"V  c #996262",
"C  c #C06868",
"Z  c #98803B",
"A  c #A08430",
"S  c #A38630",
"D  c #B09030",
"F  c #B39230",
"G  c #BA9730",
"H  c #BD9A30",
"J  c #C09C30",
"K  c #C39F34",
"L  c #C6A130",
"P  c #C9A330",
"I  c #CAA63B",
"U  c #CEAA3E",
"Y  c #D0A830",
"T  c #D1AC3E",
"R  c #A28C48",
"E  c #A49361",
"W  c #A79B7A",
"Q  c #D3B24F",
"!  c #D3B353",
"~  c #D5B965",
"^  c #C6B276",
"/  c #D6BE76",
"(  c #D7BF7A",
")  c #9F9B8F",
"_  c #9A9A9A",
"`  c #A88383",
"'  c #BA8E8E",
"]  c #AB9797",
"[  c #B69A9A",
"{  c #A9A392",
"}  c gray67",
"|  c #BAA0A0",
" . c gray74",
".. c #C3B792",
"X. c #D3B0B0",
"o. c #D2C18F",
"O. c #DACA9A",
"+. c #DBD0AF",
"@. c #DDD5BD",
"#. c #CDC0C0",
"$. c gray88",
/* pixels */
"                                                                .               ",
"  9 w 9   % * * * %   9 w 9   % = = = % = = % = %   9 w 9   % = = = %   9 q 9   ",
"  A Y A + 4 5 l l 4 + A Y A + 4 l l l l l l l l p + A Y A + 4 l l l 4 + A Y A   ",
"  A Y A + 4 ` | ` 4 + A Y A + 4 l l n [ | n l l 3 + A Y A + 4 ` | ` 4 + A Y A . ",
"  A Y A + 4 ]  .] 4 + A Y A + 4 l l B  . .B l l 4 + A Y A + 4 ]  .] 4 + A Y k   ",
"  A Y A + 4 y r y 4 + A Y A + 4 l l u r r i l l 4 + A Y A + 4 y r y 4 + A Y S   ",
"  E / E + 4 u t u 4 + E / E + 4 c b z t t z b c 4 + E / E + 4 u t u 4 + E ( E   ",
"  } $.} + 4 m C m 4 + } $.} + 4 m C C C C C C m 4 + } $.} + 4 m C m 4 + } $.}   ",
"  } $.} + 4 m C m 4 + } $.} + 4 m C C C C C C m 4 + } $.} + 4 m C m 4 + } $.} . ",
"  } $.} + 4 m C m 4 + } $.} + 4 m C C C C C C m 4 + } $.} + 4 m C m 4 + } $.} . ",
"  } $.} + 4 m C m 4 + } $.} + 4 m C C C C C C m 4 + } $.} + 4 m C m 4 + } $.} . ",
"  } $.} + 4 m C m 4 + } $.} + 4 m C C C C C C m 4 + } $.} + 4 m C m 4 + } $.} . ",
"  } $.} + 4 m C m 4 + } $.} + 4 m C C C C C C m 4 + } $.} + 4 m C m p @ } $.}   ",
"  } $.} + 4 x b x 4 + } $.} + 4 c b b b b b b z 4 + } $.} + 4 x b c 0 $ } $.}   ",
"  } $.} + 4 v N v 4 + } $.} + 4 l l z N B z l l 4 + } $.} + 4 v B v 4 + } $.}   ",
"  } $.} + 4 [ #.[ 4 + } $.} + 4 l l B #.X.B l l 4 + } $.} + 4 [ X.[ 4 + } $.}   ",
"  W O.W + 4 ' X.' 4 + W O.W + 4 l l V X.X.V l l 4 + W O.W + 4 ' X.' 4 + W O.W   ",
"  A Y A + 4 m C m 4 + A Y A + 4 l l c C C c l l 4 + A Y A + 4 m C m 4 O k Y Z . ",
"  A Y A + 4 u t u 4 + A Y A + 4 l l p t t 4 l l 4 + A Y A + 4 u u u 4 + S Y A X ",
"  A Y A + 4 = $ = 4 + A Y A + 4 l l < $ $ < l l 4 + A Y A + 4 = $ = 4 + A Y A X ",
"  A Y A + 4 3 1 3 4 + A Y A + 4 l l 5 1 1 4 l l 4 + A Y A + 4 3 5 5 5 O A Y A   ",
"  A Y F q > 3 5 4 > q F Y F q > 3 l l l l l l 3 > q F Y F q > 3 l 0 : q F Y A   ",
"  A Y Y K & , 5 , & J Y Y Y J & , p l l l 5 l , & J Y Y Y J & , 0 4 & J Y Y A   ",
"  A ~ O.o.k 0 * 0 k P ( O.( P k 0 * * * * * * 0 k P ( O.( P k 0 % 9 Z o.O.~ A   ",
"  A ^  .X.Q w 7 e Y Y .. ...Y Y e 8 8 8 8 8 8 e Y Y .. ...Y Y e 8 e U X. .^ S   ",
"  A M r a K G D G Y Y s r s Y Y G D D D D D D G Y Y s r s Y Y G D H K a r k Z   ",
"  A A w e L Y Y Y Y Y g w h Y Y Y Y Y Y Y Y Y Y Y Y h w h Y Y Y Y Y P e q Z S   ",
"  A Y Y Y Y Y Y Y Y Y Y Y Y Y Y Y Y Y Y Y Y Y Y Y Y Y Y Y Y Y Y Y Y Y Y P Y A X ",
"  9 w w w w w w w w w w w w w w w w w w w w w w w w w w w w w w w w w w w w 9   ",
"    & 8 7 o o # $ $ $ $ $ $ $   6 8 6     6 8 6   $ $ $ $ $ $ $ $ @   7 8 &     ",
"    w D S @ - 0 1 1 1 1 1 1 < + g D g     g D g + , 1 1 1 1 1 1 1 - # S D w     ",
"    f Y J & = , ; : 5 l l l 4 + A Y A     A Y A + 4 l l l 5 ; ; ; = & J Y f     ",
"    f Y J &       + 4 l l l 4 + A Y A     A Y A + 4 l l l 4 +       & J Y f     ",
"    f Y I ) _ _ d + 4 l l l 4 + A Y H j j H Y A + 4 l l l 4 + d _ _ ) I Y f     ",
"    f Y T +.@.@.{ + , 1 1 1 , + h F D D D D D g + , 1 1 1 , + { @.@.+.T Y f     ",
"    f Y Y Q ! ! R   $ $ $ $ $ o & 8 8 8 8 8 8 6   @ $ $ $ $   R ! ! ! Y Y f     ",
"    f Y Y Y Y Y F w w w w w w w w w w w w w w w w w w w w w w F Y Y Y Y Y f     ",
"    f Y Y Y Y Y Y Y Y Y Y Y Y Y Y Y Y Y Y Y Y Y Y Y Y Y Y Y Y Y Y Y Y Y Y f     ",
"    8 w w w w w w w w w w q w w w w w w w w w w w w w w w w w w w w w w w 8     ",
"                            . .                                                 "
};
