/* XPM */
static char *_e4ee066aad24b17f5331e61d4325e898usQ7tybH1NdU81d[] = {
/* columns rows colors chars-per-pixel */
"40 40 146 2 ",
"   c gray25",
".  c gray28",
"X  c #4C4C4C",
"o  c #505050",
"O  c #535353",
"+  c gray35",
"@  c #5D5D5D",
"#  c #626262",
"$  c DimGray",
"%  c #6D6D6D",
"&  c #747474",
"*  c #797979",
"=  c gray49",
"-  c #E9BE55",
";  c #EABF54",
":  c #E2B65F",
">  c #E6BA59",
",  c #E4B95B",
"<  c #E4B85C",
"1  c #DCAE67",
"2  c #DBAD69",
"3  c #DAAC6A",
"4  c #D8AA6C",
"5  c #DEB164",
"6  c #DFB369",
"7  c #D6A770",
"8  c #D4A572",
"9  c #D4A473",
"0  c #D2A275",
"q  c #D1A176",
"w  c #D0A077",
"e  c #D0A078",
"r  c #DFB676",
"t  c #E6BC62",
"y  c #EDC34F",
"u  c #EEC44E",
"i  c #F6CD43",
"p  c #F4CB46",
"a  c #F5CD44",
"s  c #F4CC45",
"d  c #F8CF41",
"f  c #F0C74B",
"g  c #F2C948",
"h  c #F8D040",
"j  c #F8D146",
"k  c #F8D34D",
"l  c #ECC151",
"z  c #EDC65C",
"x  c #F4CF56",
"c  c #F8D451",
"v  c #F8D453",
"b  c #F8D65C",
"n  c #EDC762",
"m  c #EAC56F",
"M  c #F8D863",
"N  c #F8D867",
"B  c #EECE7C",
"V  c #F5D776",
"C  c #F8DB72",
"Z  c #F8DC77",
"A  c #808080",
"S  c #818181",
"D  c gray51",
"F  c #848484",
"G  c gray52",
"H  c #868686",
"J  c gray53",
"K  c #8B8B8B",
"L  c gray55",
"P  c #929292",
"I  c gray59",
"U  c gray60",
"Y  c #9B9B9B",
"T  c gray61",
"R  c #A0A0A0",
"E  c gray63",
"W  c #A4A4A4",
"Q  c #AAAAAA",
"!  c gray68",
"~  c #AFAFAF",
"^  c #B2B2B2",
"/  c gray71",
"(  c #B6B6B6",
")  c #B9B9B9",
"_  c gray73",
"`  c #BCBCBC",
"'  c gray74",
"]  c #D4A985",
"[  c #DCBA9E",
"{  c #F0D283",
"}  c #F8DE80",
"|  c #F8DF84",
" . c #F2D789",
".. c #E4C493",
"X. c #F6DF95",
"o. c #F8E39A",
"O. c #F8E49C",
"+. c #F2DDA4",
"@. c #E4CCB8",
"#. c #EAD3B0",
"$. c #F8E6A5",
"%. c #F7E8B5",
"&. c #F8E9B4",
"*. c #F8EAB8",
"=. c #C1C1C1",
"-. c #C3C3C3",
";. c #C6C6C6",
":. c gray78",
">. c #C8C8C8",
",. c #CBCBCB",
"<. c gray80",
"1. c #CDCDCD",
"2. c #CECECE",
"3. c #D0D0D0",
"4. c #D5D5D5",
"5. c #DADADA",
"6. c #DFDFDF",
"7. c #ECDED1",
"8. c #F4E8C6",
"9. c #F8ECC1",
"0. c #F8EDC6",
"q. c #F0E2CC",
"w. c #F8EECA",
"e. c #F8F0D1",
"r. c #F8F0D5",
"t. c #F8F2DC",
"y. c gray88",
"u. c #E7E7E7",
"i. c gray91",
"p. c gray92",
"a. c #ECECEC",
"s. c #EFEFEF",
"d. c #F4EFEB",
"f. c #F7F2E7",
"g. c #F8F4E5",
"h. c #F8F4E7",
"j. c #F5F0E9",
"k. c #F8F5EB",
"l. c #F8F6EF",
"z. c #F1F1F1",
"x. c #F3F3F3",
"c. c #F4F4F4",
"v. c gray97",
"b. c #F8F7F2",
"n. c #F8F8F6",
"m. c #F8F8F8",
/* pixels */
">.>.>.>.4.i.v.m.m.m.m.m.m.m.m.m.m.m.m.m.n.n.m.m.m.m.m.m.m.n.m.m.m.m.i.4.;.>.>.>.",
">.>.<.>.5.s.n.l.f.f.j.j.d.j.d.d.d.d.d.d.d.d.d.d.d.d.d.d.d.d.j.h.k.m.s.5.1.>.>.>.",
">.>.4.6.u.z.l.w.$.+.#.@.@.@.@.@.@.@.@.@.@.@.@.@.@.@.@.@.@.#.+.$.w.k.z.u.y.3.1.>.",
">.<.6.s.v.v.h.$.M n r ] ] ] ] ] ] ] ] ] ] ] ] ] ] ] ] ] ] r n M $.j.v.m.s.y.>.>.",
"^ _ 4.z.f.e.%. .z : 7 w e e e e e 7 2 2 2 2 7 0 e e e e e 7 > z  .&.e.k.z.4._ ^ ",
"I T ;.s.e.O.V m t 7 9 w e e e e 0 5 l l l - 5 7 e e e e e 7 7 6 m V $.w.s.;.R I ",
"S L _ s.9.Z p < 9 w e e e e 0 0 7 > a h h a > 7 0 0 e e e e 0 0 < p Z 9.p.' L A ",
"S L _ s.9.Z p < 9 e e e e e 7 5 > u a h h a y > 1 7 e e e e e 7 < p Z 9.i.` L A ",
"= L ' s.9.Z p < 8 e e e 0 w 2 y a a h h h h a a l 2 0 e e e e 9 < p Z 9.s.' L A ",
"S L ' i.9.Z p < 8 e e e 7 2 : u j b C Z Z C b j u < 2 7 e e w 9 < p Z 9.i.` L A ",
"S L ' i.9.Z p < 8 e e 0 5 - u a k Z *.9.*.*.| k s u y 5 0 w e 9 < p Z 9.s.' K A ",
"= K ' s.9.Z p < 8 e 8 4 > a h h c $.h.m.m.h.O.v h h p > 4 0 w 9 < p Z 9.p.' L A ",
"S L ' i.9.Z p < 8 7 t < y p h h c O.h.m.m.g.o.v h h a l > 5 9 9 < p Z 9.i.` L A ",
"S L _ s.9.Z p < 8 1 - p i d h h v O.g.m.m.g.o.c h h h a a l 5 9 < p Z 9.s.' L A ",
"S L ' i.9.Z p < 8 1 l h d d k N | *.h.m.m.l.*.| N c h h h l 5 w < p Z 9.p.' L A ",
"= L ' s.9.Z p < 8 1 l h d d N o.0.t.b.m.m.b.t.0.o.N h h h l 5 9 < p Z 9.i.' L A ",
"A L ) s.*.Z s < 9 2 l h h h Z *.k.b.m.m.m.m.b.f.&.C h h h l 6 9 < g Z 9.s.' L A ",
"A K ' p.0.Z g < 9 5 l h h h b Z $.w.b.b.m.b.w.$.Z b h h h y 1 9 < s Z 9.i.' L A ",
"A L ' p.9.Z s < 9 5 l h h h h j N $.g.m.m.h.$.N c j h h h y 1 9 < s Z 9.s.' L A ",
"A L ' s.9.Z g : 9 7 < u p p a h k Z &.9.9.*.Z k h h a g y < 4 9 > p Z 0.i.' L S ",
"A L ' p.*.Z s : 7 9 7 5 - s h h j b C Z Z C b j h h s l 5 4 9 9 < a Z *.s.' L = ",
"A L ) s.0.| x n 7 9 w 7 t u g a p p s j g s s s s a y : 9 w 8 7 < x | 0.p.' L S ",
"S L ' p.t.&.o.B t 5 7 9 2 t > > < > < > < < < < > : t 2 8 8 5 , B o.&.t.p.' L D ",
"A K ) s.z.f.e.o.x < 5 w 0 9 9 0 0 0 0 8 9 9 9 7 9 9 0 q e 4 l x o.r.k.z.s._ L = ",
"A L / 6.s.x.b.%.| { ..[ [ [ [ [ [ [ [ [ [ [ [ [ [ [ [ [ [ ..{ | &.k.m.s.6.( K S ",
"= K ! ,.6.s.b.t.0.8.q.7.7.7.7.7.7.7.7.7.7.7.7.7.7.7.7.7.7.q.8.0.t.z.z.6.,.Q H S ",
"A H E ) ,.u.z.m.x.x.x.z.x.x.x.x.x.x.x.x.x.x.x.x.z.x.x.x.x.x.x.x.z.m.u.3._ E H S ",
"A F P R _ ,.6.6.y.y.y.y.y.y.y.y.y.y.y.y.y.y.y.y.y.y.y.y.y.y.y.y.y.6.,._ E P H = ",
"D D H H T _ ,.,.1.1.1.1.1.1.1.1.<.1.1.1.1.1.1.1.1.1.1.1.<.<.<.<.<.<._ T H H D = ",
"= = D = K W ^ ( ^ / ^ / ' >.;.>.>.' / ^ ^ / ' ;.>.>.;.' ( ^ ^ / ^ ^ W K = = D D ",
"D = = D K K I I I I I Y ! -.>.>.-.~ Y I I Y ~ -.>.>.-.~ Y I I I I I K H D D = D ",
"D D D H K K K H S S H L E ( _ ) / E L J J L E / _ ) ( E L H S S H K L K H D D D ",
"= H P T ! ( ( T H K U E I H H S H P E W W E I H S H H I E U K H T _ ^ ! E P D = ",
"D H E _ <.y.6._ K I ! ( H + X X + K ( =.=.( H + X o + H ( ! P K ( 6.y.<._ E H D ",
"= K ! ,.6.y.6.Q * * P I * @ O O + * U E R I * @ O O + * U P = * Q 6.u.5.,.! K = ",
"D K ( y.y.6.:.I # + # $ % % % % % $ $ $ $ $ $ % % % $ % $ # + # I >.6.y.6.( K D ",
"H P ' i.y.<.! = X     . @ & * * & @ .     . @ & * * & @ .     . = ! ,.y.i.' P H ",
"W Q =.5.:.E = # .       X @ # # @ o       . X @ # # @ X .     . # = T :.5.:.! W ",
"=.=.>.<.W & X .           . . . .           . . . . .           . X & Q :.>.=.=.",
">.>.>.>.E $                                                         $ T >.>.>.>."
};
