/* XPM */
static char *d309f2ef8fd04ed8aabb728dbea372aehA3EQDRueZ8h6yef[] = {
/* columns rows colors chars-per-pixel */
"40 40 87 1 ",
"  c #31231C",
". c #292323",
"X c #282828",
"o c #353724",
"O c #273F3F",
"+ c #472211",
"@ c #4F251A",
"# c #522C15",
"$ c #592D1A",
"% c #653B17",
"& c #5F411F",
"* c #5A5B20",
"= c #52532A",
"- c #7F552E",
"; c #686028",
": c #697327",
"> c #6B6632",
", c #7F653C",
"< c #737635",
"1 c #596D47",
"2 c #437C58",
"3 c #597A56",
"4 c #507959",
"5 c #587858",
"6 c #597859",
"7 c #597A58",
"8 c #5B7F5A",
"9 c #746540",
"0 c #667547",
"q c #6E7E40",
"w c #6B744D",
"e c #697949",
"r c #6B7B4C",
"t c #767B47",
"y c #6A7750",
"u c #C01820",
"i c #86561F",
"p c #9F5110",
"a c #885322",
"s c #885828",
"d c #886538",
"f c #B86820",
"g c #F87800",
"h c #8B7740",
"j c #8F7B40",
"k c #8D7E46",
"l c #857154",
"z c #887C5E",
"x c #967658",
"c c #95775E",
"v c #957364",
"b c #927F75",
"n c #509010",
"m c #78B820",
"M c #389068",
"N c #59855B",
"B c #579752",
"V c #6E914C",
"C c #7C9942",
"Z c #708656",
"A c #778860",
"S c #7E8F6C",
"D c #7D8973",
"F c #708D79",
"G c #788878",
"H c #40D870",
"J c #F0B012",
"K c #8C864B",
"L c #808B48",
"P c #93804C",
"I c #878D50",
"U c #8E8F58",
"Y c #848862",
"T c #93916C",
"R c #90937C",
"E c #97A77A",
"W c #A5B965",
"Q c #F0A068",
"! c #F0D840",
"~ c #E860B0",
"^ c #7D9383",
"/ c #829180",
"( c #879084",
") c #899284",
"_ c #889087",
"` c #889088",
"' c #F8F8F8",
/* pixels */
"GG``55555555``5GGG``55555555``5GGG``5555",
"G``5````````5``GG``5````````5``GG``5````",
"``5``555`55`55````5``555`55`55````5``555",
"55``5GGG`GG5`55555``5GGG`GG5`55555``5GGG",
"5``5GGGG`GGG5```5``5GGGG`GGG5```5``5GGGG",
"5``GGGGG`GGGG55`5``GGGGG`GGGG55`5``GGGGG",
"5````G````GGGG``5````G````GGGG``5````G``",
"5555```55```G``55555```55```G``55555```5",
"```55``GG55```5````33(`GG55```5````55``G",
"55``55`GGGG``5``55t=XX_GGGG``5``55``55`G",
"GG5``5`GG```5```LonnnnXXS```5```GG5``5`G",
"GGG5`55````5``5UnnmmmmmnX1&5``5`GGG5`55`",
"`GGG``555555bJKXnmmmnnnnXXQ%``G``GGG``55",
"``GG5```5```vQXXnmnnXXnnnXQ$`5G```GG5```",
"55``G5``5`G59fXgXnXnnnnXgXf+5GG`55``G5``",
"GG5`````5```cffXgXnmmm'nXXf@```5GG5`````",
"GG``55555555xffXXgXnnmmnXff#_`5GGG``5555",
"G``5````````0dX~XXXXnmmnX~.(5_`GG``5````",
"``5``555`55`5w ~~~XXnnmX~XO`55````5``555",
"55``5GGG`GG5`w.X~~~XnnmXXX y`55555``5GGG",
"5``5GGGG`GGGe-aXXX~~XnmXXssl5```5``5GGGG",
"5``GGGGG`GGGjssXMHXXXXXMXspzG55`5``GGGGG",
"5````G````GGjss.MMHHHHHMXi,DGG``5````G``",
"5555```55```kXX!MMHHHHHMM$(`G``55555```5",
"```55``GG55`Pf.M!MMMHHMM!>3```7````55``G",
"55``55`GGGG`T<;BM!!MMM!!WYG``5``55``55`G",
"GG5``5`GG```5`T*MMM!!!MMYR)`5```GG5``5`G",
"GGG5`55````5``NVXXMMMMXXT__3``5`GGG5`55`",
"`GGG``555555``GIuu:ZSCuuV355``G``GGG``55",
"``GG5```5````5GEZ<w42AZUV````5G```GG5```",
"55``G5``5`G55GG`7N^`G4G/5(G55GG`55``G5``",
"GG5`````5``````5GG5````(5(`````5GG5`````",
"GG``55555555``5GGG``55555555``5GGG``5555",
"G``5````````5``GG``5````````5``GG``5````",
"``5``555`55`55````5``555`55`55````5``555",
"55``5GGG`GG5`55555``5GGG`GG5`55555``5GGG",
"5``5GGGG`GGG5```5``5GGGG`GGG5```5``5GGGG",
"5``GGGGG`GGGG55`5``GGGGG`GGGG55`5``GGGGG",
"5````G````GGGG``5````G````GGGG``5````G``",
"5555```55```G``55555```55```G``66666```6"
};
