/* XPM */
static char *_0df954248714f32a71dd1d06e74a5a8cCw6FLPWhQD8zjaP[] = {
/* columns rows colors chars-per-pixel */
"60 40 117 2 ",
"   c gray25",
".  c gray27",
"X  c gray29",
"o  c #4C4C4C",
"O  c gray30",
"+  c gray31",
"@  c #535353",
"#  c #565656",
"$  c #5B5B5B",
"%  c gray37",
"&  c #5F5F5F",
"*  c #606060",
"=  c #676767",
"-  c #686868",
";  c #6A6A6A",
":  c #6D6D6D",
">  c #6F6F6F",
",  c #727272",
"<  c #747474",
"1  c #7E7E7E",
"2  c #B29C6E",
"3  c #A8907C",
"4  c #BCA860",
"5  c #BCAE7C",
"6  c #EABF53",
"7  c #E9BE55",
"8  c #E3B75D",
"9  c #E2B65F",
"0  c #E4B95B",
"q  c #DBAD69",
"w  c #DAAC6A",
"e  c #D8AA6F",
"r  c #DFB263",
"t  c #DEB164",
"y  c #D6A770",
"u  c #D4A572",
"i  c #D3A374",
"p  c #D2A275",
"a  c #D1A176",
"s  c #D0A077",
"d  c #D0A078",
"f  c #E1B460",
"g  c #F6CD43",
"h  c #F4CB46",
"j  c #F0C74B",
"k  c #F0C64C",
"l  c #F8D040",
"z  c #ECC151",
"x  c #F4CF56",
"c  c #F8D451",
"v  c #F8D867",
"b  c #ECCA78",
"n  c #F8DC77",
"m  c #808080",
"M  c #818181",
"N  c gray52",
"B  c #888888",
"V  c gray56",
"C  c gray59",
"Z  c #9A9A9A",
"A  c #9D9D9D",
"S  c #9F9F9F",
"D  c #A4A4A4",
"F  c #A5A5A5",
"G  c gray65",
"H  c #A9A9A9",
"J  c #AAAAAA",
"K  c gray67",
"L  c #AFAFAF",
"P  c gray69",
"I  c #B2B2B2",
"U  c gray71",
"Y  c #B6B6B6",
"T  c #B7B7B7",
"R  c #BEB7B1",
"E  c gray73",
"W  c #BCBCBC",
"Q  c #D3A681",
"!  c #F4DF9F",
"~  c #F6E19F",
"^  c #F8E49C",
"/  c #CEC0AB",
"(  c #D6CCA5",
")  c #EED8AA",
"_  c #F2DDA4",
"`  c #E6CEB5",
"'  c #E4CCB8",
"]  c #E6D0BE",
"[  c #F8EAB8",
"{  c #C1C1C1",
"}  c #C5C5C5",
"|  c gray78",
" . c #C8C8C8",
".. c #CDCDCD",
"X. c #CECECE",
"o. c LightGray",
"O. c #D6D5D1",
"+. c #D5D5D5",
"@. c #DAD9D4",
"#. c #DADADA",
"$. c #E9D7C8",
"%. c #ECDED1",
"&. c #F5EAC3",
"*. c #F8ECC1",
"=. c #F8EECA",
"-. c #F8F0D5",
";. c #F8F2DC",
":. c gray88",
">. c #E4E4E4",
",. c gray90",
"<. c #E9E9E9",
"1. c #ECECEC",
"2. c #F4F0EC",
"3. c #F1F1F1",
"4. c #F3F3F3",
"5. c #F6F3F1",
"6. c #F8F8F8",
/* pixels */
"m @                                 @ m m @                                 @ M M @                                 @ M ",
"@ B P { { { { { { { { { { { { { { P B @ @ B P { { { { { { { { { { { { { { L B @ @ B P { { { { { { { { { { { { { { L B @ ",
"  P 1.6.5.] ' ' ' ' ' ' ' ' ] 5.6.1.P     P 1.;.~ ` ' ' ' ' ' ' ] ' ` ~ ;.1.L     L 1.;.~ ` ' ' ' ` ' ' ' ' ` ~ ;.<.L   ",
"  { 6.2.$.Q d d d d d d d d Q $.2.6.{     { ;.~ z t d d d d d d d p t z ! ;.{     { ;.~ z p d d p w w u d d p z ~ ;.{   ",
"  { 6.%.d d d d d d d d d d d d %.6.{     { ^ z u j w d d d d d d e j u z ^ {     { ^ z d d p s 9 l l r d p d d z ^ {   ",
"  { 6.%.d d d d d d d d d d d d %.6.{     { ^ z d u a d d d d d d d u d z _ {     { ^ z d d p 9 h l l h r p d d z ^ {   ",
"  { 6.%.d d 8 t d d d d t f d d %.6.{     { ^ z d d d d d a d d d d d d z ^ {     { ^ z d s d 9 l l l l 0 s d d z ^ {   ",
"  { 6.%.d d t w d d d d w t d d %.6.{     { ^ z d d d d y 0 8 y d d d d z ^ {     { ^ z p 9 u 0 l l l l 0 e r p z ^ {   ",
"  { 6.%.d d d d d d d d d d d d %.6.{     { ^ z d d d u 0 l l 0 e s d d z ~ {     { ^ z a z t z c n n c z f z d z ^ }   ",
"  { 6.%.d d d d d u u a d d d d %.6.{     { ^ z d d u 0 l l l l 0 a d d z ^ {     } ^ z d d z l n 6.6.n l z d d z ~ {   ",
"  { 6.%.d d d d q h h w d d d d %.6.{     { ^ z d d 7 g l l l l h z d s z ^ /     { ^ z d d z l n 6.6.n l z s s z ^ {   ",
"  { 6.2.$.Q d t k l l j t d Q $.2.6.{     { ;.! 7 p z l v *.*.v l z a z ~ ;.{     { ;._ z a z n -.6.6.-.n z s z _ ;.{   ",
"  { 6.6.5.' ' ) ^ ^ ^ ^ ) ' ' 5.6.6.{     { 6.;.~ ` _ ^ [ 6.6.[ ^ _ ' ~ ;.6.{     { 6.;.~ ` _ =.6.6.6.6.=._ ` ~ ;.6.{   ",
"  T 4.6.6.6.6.6.6.6.6.6.6.6.6.6.6.4.T     T 4.6.6.6.6.6.6.6.6.6.6.6.6.6.6.3.T     T 4.6.6.6.6.6.6.6.6.6.6.6.6.6.6.4.T   ",
"  Z #.4.4.4.4.4.6.5.4.4.4.4.4.4.4.#.Z     Z #.4.4.4.4.4.4.4.5.5.4.4.4.4.4.#.A     C #.4.4.4.4.4.4.4.4.4.4.4.4.4.4.#.Z   ",
"  , J ............................J ,     , J ............................H <     , J ............................H ,   ",
"  : D E C C C C C C C C C C C C T D :     : D T C C C C C C C C C C C C W D :     : D T C C C C C C C C C C C C E D :   ",
"  : D R 3 3 3 2 4 4 4 4 2 3 3 3 R D :     : D R 3 3 3 2 5 W W 5 2 3 3 3 R D :     : D R 3 3 3 2 5 W W 5 2 3 3 3 R D :   ",
"  : D / w s s r z z z z r s s w / D :     : D / w p d t b %.%.b r s a w / D :     : D / w d d r b %.%.b r s a w / D :   ",
"  : D ( x e u u u u u u u u e x ( D :     : D ( x y u u u u u u u u e x ( D :     : D ( x e u u u u u u u u e x ( D :   ",
"  : D O.-.x h h h h h h h h x -.O.D :     : D O.-.x h h g h h h h h x -.o.G :     : G O.-.x h h h h h h h h x -.O.D :   ",
": $ < G @.&.*.*.*.*.*.*.*.*.&.@.J < $ : : $ < J @.&.*.&.*.*.*.*.&.[ &.@.J < $ > : $ < J @.&.*.*.*.*.*.*.&.[ &.@.J < $ : ",
"m : & < G W W W W W W W W W E G < * : m m - * < G W W W W W W W W W W G < $ - m M : $ < G E W W W W W W W W W G < * - m ",
": : @ O > 1 m m m m m m M m 1 > o @ : : : : # O > 1 m m m M M M m M 1 , O # : : : : # O : 1 m m m m m M m M 1 > O # : : ",
"  . o + o < 1 m m m m m m m < O + O .     . O + O < 1 M m m m m M 1 < o O O .     . O O O < 1 M m m M M m 1 < o O o .   ",
"  - L } < o > m m m m m m , + < } P =     = P } < o , m m m m m m > o < } P -     - P } < O : m m m M M m : O < } P =   ",
"  : K P # - $ - V P P V - $ - @ P J :     : K P @ - $ - V P P V : $ : @ P K :     : K P @ : $ : V U P V : $ - @ P J :   ",
"  : G S o Z & * C  . .C * & Z o S D :     : D S o Z & * C  . .C * $ Z X A D :     : D S O C $ * C  . .C * $ Z o S D :   ",
"  : D S +  .: & C  . .C & :  .+ S D :     : D S +  .: * C  . .C * :  .+ S D :     : D S +  .: * C  . .C * :  .+ S D :   ",
"  : D S @ ,.m = C  . .C - m >.@ S D :     : D S @ ,.M = C  . .C - m >.@ S D :     : D S @ ,.m - C  . .C - m ,.@ S D :   ",
"  : D S @ ,...A C  . .C A ..>.@ S D :     : D S @ ,...A C  . .C A ..,.@ S D :     : D S @ ,...A C  . .C A ..,.@ S D :   ",
"  : D S +  .,...J C C J ..,. .+ S D :     : D S O  .,...K C C K ..>. .+ S D :     : D S O  .,...J C C J ..,. .+ S G :   ",
"  : D S o Z ..:.+.W W +.:...A o S D :     : D S o Z ..:.o.W W +.:.X.A o S D :     : D S X Z ..:.+.W W +.:...Z X S D :   ",
"  : D G # : A ..<.<.<.<...A : @ G D :     : D D @ : A ..<.<.<.<...A : @ D D :     : D D @ : A ..<.<.<.<...A : @ D D :   ",
"  : D T N O - Z E E E E Z : O N T D :     : D T N O : Z W E E E Z : O N T D :     : D T N O : Z E E E W A : O N T D :   ",
"  : D o.:.N # X O + O + X @ N :.o.G :     : D o.:.N @ X O + O O X @ N :.o.D :     : D o.:.B @ X + O O O X @ N :.o.D :   ",
"  : T ,.o.T D A S S S S S D T o.>.P :     : T ,.+.T D S S S S S S D T o.>.P :     : E ,.o.T D S S S S S S D T o.>.P :   ",
"  : A T D D D D D D D D D D D D T A :     : A P D D D D D D D D D D D D T S :     : A P D D D D D D D D D D D D T D :   ",
"  $ : : : : : : : : : : : : : : : : &     * : : : : : : : : : : : : : : : : *     & : : : : : : : : : : : : : : : : $   ",
"                                                                                                                        "
};
