/* XPM */
static char *c8e11ce1dace4623b79059c3561c0c2bHrHxjwFeuGT0RrX3[] = {
/* columns rows colors chars-per-pixel */
"48 32 6 1 ",
"  c gray25",
". c #D0A078",
"X c #F8D040",
"o c #808080",
"O c #C8C8C8",
"+ c #F8F8F8",
/* pixels */
"o              oo              oo              o",
" O++++++++++++O  O++++++++++++O  O++++++++++++O ",
" +++........+++  ++X........X++  ++X........X++ ",
" ++..........++  +X.X......X.X+  +X....XX....X+ ",
" ++..........++  +X..........X+  +X...XXXX...X+ ",
" ++..X....X..++  +X..........X+  +X...XXXX...X+ ",
" ++..........++  +X....XX....X+  +X.X.XXXX.X.X+ ",
" ++..........++  +X...XXXX...X+  +X..XX++XX..X+ ",
" ++....XX....++  +X..XXXXXX..X+  +X..XX++XX..X+ ",
" +++..XXXX..+++  ++X.XX++XX.X++  ++X.X++++X.X++ ",
" ++++++++++++++  ++++++++++++++  ++++++++++++++ ",
" O++++++++++++O  O++++++++++++O  O++++++++++++O ",
" oOOOOOOOOOOOOo  oOOOOOOOOOOOOo  oOOOOOOOOOOOOo ",
" oOooooooooooOo  oOooooooooooOo  oOooooooooooOo ",
" oO...XXXX...Oo  oO...X++X...Oo  oO...X++X...Oo ",
" oOX........XOo  oOX........XOo  oOX........XOo ",
" oO+XXXXXXXX+Oo  oO+XXXXXXXX+Oo  oO+XXXXXXXX+Oo ",
"o oO++++++++Oo oo oO++++++++Oo oo oO++++++++Oo o",
"oo oooooooooo oooo oooooooooo oooo oooooooooo oo",
"    oooooooo        oooooooo        oooooooo    ",
" o+o oooooo o+o  o+o oooooo o+o  o+o oooooo o+o ",
" oO o oOOo o Oo  oO o oOOo o Oo  oO o oOOo o Oo ",
" oO O oOOo O Oo  oO O oOOo O Oo  oO O oOOo O Oo ",
" oO + oOOo + Oo  oO + oOOo + Oo  oO + oOOo + Oo ",
" oO +OoOOoO+ Oo  oO +OoOOoO+ Oo  oO +OoOOoO+ Oo ",
" oO O+OooO+O Oo  oO O+OooO+O Oo  oO O+OooO+O Oo ",
" oO oO++++Oo Oo  oO oO++++Oo Oo  oO oO++++Oo Oo ",
" oOo oOOOOo oOo  oOo oOOOOo oOo  oOo oOOOOo oOo ",
" oO+o      o+Oo  oO+o      o+Oo  oO+o      o+Oo ",
" o+OOOOOOOOOO+o  o+OOOOOOOOOO+o  o+OOOOOOOOOO+o ",
" oooooooooooooo  oooooooooooooo  oooooooooooooo ",
"                                                "
};
